<?xml version='1.0' encoding='utf-8'?>
<svg xmlns="http://www.w3.org/2000/svg" data-name="Livello 1" viewBox="0 0 3200 3200"> <defs> <style>.cls-1 { fill: #fbfae6; } .cls-2 { fill: url(#c); } .cls-3 { fill: url(#f); } .cls-3, .cls-4, .cls-5 { opacity: .63; } .cls-6, .cls-7, .cls-8, .cls-9, .cls-10, .cls-11, .cls-12, .cls-13, .cls-14, .cls-15, .cls-16, .cls-17, .cls-18, .cls-19, .cls-20, .cls-21, .cls-22, .cls-23, .cls-24, .cls-25, .cls-26, .cls-27, .cls-28, .cls-29, .cls-30, .cls-31, .cls-32, .cls-33, .cls-34, .cls-35, .cls-36 { fill: none; } .cls-6, .cls-7, .cls-8, .cls-9, .cls-10, .cls-11, .cls-12, .cls-13, .cls-14, .cls-15, .cls-16, .cls-17, .cls-18, .cls-19, .cls-20, .cls-21, .cls-22, .cls-23, .cls-24, .cls-25, .cls-26, .cls-27, .cls-29, .cls-30, .cls-31, .cls-32, .cls-33, .cls-34, .cls-35, .cls-36 { stroke-dasharray: 0 0 0 6.5; stroke-linecap: round; } .cls-6, .cls-7, .cls-22 { stroke-width: 2px; } .cls-6, .cls-12, .cls-15, .cls-18, .cls-20, .cls-26, .cls-27, .cls-31, .cls-33, .cls-36 { stroke: #ffffca; } .cls-4, .cls-37 { fill: url(#a); } .cls-38 { fill: #fff; } .cls-39 { fill: #dce085; } .cls-7, .cls-8, .cls-10, .cls-13, .cls-17, .cls-25, .cls-30, .cls-32, .cls-34, .cls-35 { stroke: #fffc99; } .cls-8, .cls-18, .cls-21 { stroke-width: 1.5px; } .cls-40 { fill: #799902; } .cls-9, .cls-11, .cls-14, .cls-16, .cls-19, .cls-21, .cls-22, .cls-23, .cls-24, .cls-29 { stroke: #023802; } .cls-9, .cls-13, .cls-26 { stroke-width: 3.5px; } .cls-41 { fill: #c7d292; } .cls-10, .cls-12, .cls-14 { stroke-width: 2.5px; } .cls-11, .cls-27, .cls-34 { stroke-width: 1.25px; } .cls-42 { fill: #b9d42f; } .cls-43 { fill: url(#e); } .cls-44 { fill: #7da804; } .cls-37 { opacity: .26; } .cls-45 { fill: #c6d90e; } .cls-15, .cls-16, .cls-17 { stroke-width: 1.75px; } .cls-19, .cls-31, .cls-35 { stroke-width: 3.25px; } .cls-20, .cls-25, .cls-29 { stroke-width: 2.75px; } .cls-46 { fill: #8bbe1c; } .cls-47 { fill: #edf4ab; } .cls-5 { fill: url(#g); } .cls-48, .cls-49 { fill: #c4e74f; } .cls-23, .cls-30, .cls-36 { stroke-width: 2.25px; } .cls-24, .cls-32, .cls-33 { stroke-width: 3px; } .cls-50 { fill: #7a9b04; } .cls-51 { fill: url(#d); } .cls-49 { stroke: #0b8210; stroke-miterlimit: 10; stroke-width: 4px; } .cls-52 { fill: url(#b); } .cls-53 { fill: #e8e7d4; } .cls-54 { fill: #708f4b; } .cls-55 { fill: #c9da67; } .cls-56 { fill: #88b91b; } .cls-57 { fill: #a8c919; } .cls-58 { fill: #899f67; } .cls-59 { fill: #afd04d; } .cls-60 { fill: #d1de39; } .cls-61 { fill: #365324; }</style> <pattern id="a" width="83" height="65" data-name="Unnamed Pattern" patternTransform="translate(22470 22222) scale(4)" patternUnits="userSpaceOnUse" viewBox="0 0 83 65"> <rect class="cls-28" width="83" height="65"/> <line class="cls-9" x1="83" x2="83" y1="65" y2="130.5"/> <line class="cls-9" y1="65" y2="130.5"/> <line class="cls-19" x1="4.61" x2="4.61" y1="61.75" y2="130.5"/> <line class="cls-24" x1="9.22" x2="9.22" y1="65" y2="130.5"/> <line class="cls-29" x1="13.83" x2="13.83" y1="61.75" y2="130.5"/> <line class="cls-14" x1="18.45" x2="18.45" y1="65" y2="130.5"/> <line class="cls-23" x1="23.06" x2="23.06" y1="61.75" y2="130.5"/> <line class="cls-22" x1="27.67" x2="27.67" y1="65" y2="130.5"/> <line class="cls-16" x1="32.28" x2="32.28" y1="61.75" y2="130.5"/> <line class="cls-21" x1="36.89" x2="36.89" y1="65" y2="130.5"/> <line class="cls-11" x1="41.5" x2="41.5" y1="61.75" y2="130.5"/> <line class="cls-9" x1="83" x2="83" y1="65" y2="130.5"/> <line class="cls-19" x1="78.39" x2="78.39" y1="61.75" y2="130.5"/> <line class="cls-24" x1="73.78" x2="73.78" y1="65" y2="130.5"/> <line class="cls-29" x1="69.17" x2="69.17" y1="61.75" y2="130.5"/> <line class="cls-14" x1="64.55" x2="64.55" y1="65" y2="130.5"/> <line class="cls-23" x1="59.94" x2="59.94" y1="61.75" y2="130.5"/> <line class="cls-22" x1="55.33" x2="55.33" y1="65" y2="130.5"/> <line class="cls-16" x1="50.72" x2="50.72" y1="61.75" y2="130.5"/> <line class="cls-21" x1="46.11" x2="46.11" y1="65" y2="130.5"/> <line class="cls-9" y1="65" y2="130.5"/> <line class="cls-9" x1="83" x2="83" y2="65.5"/> <line class="cls-9" y2="65.5"/> <line class="cls-19" x1="4.61" x2="4.61" y1="-3.25" y2="65.5"/> <line class="cls-24" x1="9.22" x2="9.22" y2="65.5"/> <line class="cls-29" x1="13.83" x2="13.83" y1="-3.25" y2="65.5"/> <line class="cls-14" x1="18.45" x2="18.45" y2="65.5"/> <line class="cls-23" x1="23.06" x2="23.06" y1="-3.25" y2="65.5"/> <line class="cls-22" x1="27.67" x2="27.67" y2="65.5"/> <line class="cls-16" x1="32.28" x2="32.28" y1="-3.25" y2="65.5"/> <line class="cls-21" x1="36.89" x2="36.89" y2="65.5"/> <line class="cls-11" x1="41.5" x2="41.5" y1="-3.25" y2="65.5"/> <line class="cls-9" x1="83" x2="83" y2="65.5"/> <line class="cls-19" x1="78.39" x2="78.39" y1="-3.25" y2="65.5"/> <line class="cls-24" x1="73.78" x2="73.78" y2="65.5"/> <line class="cls-29" x1="69.17" x2="69.17" y1="-3.25" y2="65.5"/> <line class="cls-14" x1="64.55" x2="64.55" y2="65.5"/> <line class="cls-23" x1="59.94" x2="59.94" y1="-3.25" y2="65.5"/> <line class="cls-22" x1="55.33" x2="55.33" y2="65.5"/> <line class="cls-16" x1="50.72" x2="50.72" y1="-3.25" y2="65.5"/> <line class="cls-21" x1="46.11" x2="46.11" y2="65.5"/> <line class="cls-9" y2="65.5"/> <line class="cls-9" x1="83" x2="83" y1="-65" y2=".5"/> <line class="cls-9" y1="-65" y2=".5"/> <line class="cls-19" x1="4.61" x2="4.61" y1="-68.25" y2=".5"/> <line class="cls-24" x1="9.22" x2="9.22" y1="-65" y2=".5"/> <line class="cls-29" x1="13.83" x2="13.83" y1="-68.25" y2=".5"/> <line class="cls-14" x1="18.45" x2="18.45" y1="-65" y2=".5"/> <line class="cls-23" x1="23.06" x2="23.06" y1="-68.25" y2=".5"/> <line class="cls-22" x1="27.67" x2="27.67" y1="-65" y2=".5"/> <line class="cls-16" x1="32.28" x2="32.28" y1="-68.25" y2=".5"/> <line class="cls-21" x1="36.89" x2="36.89" y1="-65" y2=".5"/> <line class="cls-11" x1="41.5" x2="41.5" y1="-68.25" y2=".5"/> <line class="cls-9" x1="83" x2="83" y1="-65" y2=".5"/> <line class="cls-19" x1="78.39" x2="78.39" y1="-68.25" y2=".5"/> <line class="cls-24" x1="73.78" x2="73.78" y1="-65" y2=".5"/> <line class="cls-29" x1="69.17" x2="69.17" y1="-68.25" y2=".5"/> <line class="cls-14" x1="64.55" x2="64.55" y1="-65" y2=".5"/> <line class="cls-23" x1="59.94" x2="59.94" y1="-68.25" y2=".5"/> <line class="cls-22" x1="55.33" x2="55.33" y1="-65" y2=".5"/> <line class="cls-16" x1="50.72" x2="50.72" y1="-68.25" y2=".5"/> <line class="cls-21" x1="46.11" x2="46.11" y1="-65" y2=".5"/> <line class="cls-9" y1="-65" y2=".5"/> </pattern> <pattern id="f" width="83" height="65" data-name="Ondulazione punti piccoli 5" patternTransform="translate(22470 22222) scale(4)" patternUnits="userSpaceOnUse" viewBox="0 0 83 65"> <rect class="cls-28" width="83" height="65"/> <line class="cls-26" x1="83" x2="83" y1="65" y2="130.5"/> <line class="cls-26" y1="65" y2="130.5"/> <line class="cls-31" x1="4.61" x2="4.61" y1="61.75" y2="130.5"/> <line class="cls-33" x1="9.22" x2="9.22" y1="65" y2="130.5"/> <line class="cls-20" x1="13.83" x2="13.83" y1="61.75" y2="130.5"/> <line class="cls-12" x1="18.45" x2="18.45" y1="65" y2="130.5"/> <line class="cls-36" x1="23.06" x2="23.06" y1="61.75" y2="130.5"/> <line class="cls-6" x1="27.67" x2="27.67" y1="65" y2="130.5"/> <line class="cls-15" x1="32.28" x2="32.28" y1="61.75" y2="130.5"/> <line class="cls-18" x1="36.89" x2="36.89" y1="65" y2="130.5"/> <line class="cls-27" x1="41.5" x2="41.5" y1="61.75" y2="130.5"/> <line class="cls-26" x1="83" x2="83" y1="65" y2="130.5"/> <line class="cls-31" x1="78.39" x2="78.39" y1="61.75" y2="130.5"/> <line class="cls-33" x1="73.78" x2="73.78" y1="65" y2="130.5"/> <line class="cls-20" x1="69.17" x2="69.17" y1="61.75" y2="130.5"/> <line class="cls-12" x1="64.55" x2="64.55" y1="65" y2="130.5"/> <line class="cls-36" x1="59.94" x2="59.94" y1="61.75" y2="130.5"/> <line class="cls-6" x1="55.33" x2="55.33" y1="65" y2="130.5"/> <line class="cls-15" x1="50.72" x2="50.72" y1="61.75" y2="130.5"/> <line class="cls-18" x1="46.11" x2="46.11" y1="65" y2="130.5"/> <line class="cls-26" y1="65" y2="130.5"/> <line class="cls-26" x1="83" x2="83" y2="65.5"/> <line class="cls-26" y2="65.5"/> <line class="cls-31" x1="4.61" x2="4.61" y1="-3.25" y2="65.5"/> <line class="cls-33" x1="9.22" x2="9.22" y2="65.5"/> <line class="cls-20" x1="13.83" x2="13.83" y1="-3.25" y2="65.5"/> <line class="cls-12" x1="18.45" x2="18.45" y2="65.5"/> <line class="cls-36" x1="23.06" x2="23.06" y1="-3.25" y2="65.5"/> <line class="cls-6" x1="27.67" x2="27.67" y2="65.5"/> <line class="cls-15" x1="32.28" x2="32.28" y1="-3.25" y2="65.5"/> <line class="cls-18" x1="36.89" x2="36.89" y2="65.5"/> <line class="cls-27" x1="41.5" x2="41.5" y1="-3.25" y2="65.5"/> <line class="cls-26" x1="83" x2="83" y2="65.5"/> <line class="cls-31" x1="78.39" x2="78.39" y1="-3.25" y2="65.5"/> <line class="cls-33" x1="73.78" x2="73.78" y2="65.5"/> <line class="cls-20" x1="69.17" x2="69.17" y1="-3.25" y2="65.5"/> <line class="cls-12" x1="64.55" x2="64.55" y2="65.5"/> <line class="cls-36" x1="59.94" x2="59.94" y1="-3.25" y2="65.5"/> <line class="cls-6" x1="55.33" x2="55.33" y2="65.5"/> <line class="cls-15" x1="50.72" x2="50.72" y1="-3.25" y2="65.5"/> <line class="cls-18" x1="46.11" x2="46.11" y2="65.5"/> <line class="cls-26" y2="65.5"/> <line class="cls-26" x1="83" x2="83" y1="-65" y2=".5"/> <line class="cls-26" y1="-65" y2=".5"/> <line class="cls-31" x1="4.61" x2="4.61" y1="-68.25" y2=".5"/> <line class="cls-33" x1="9.22" x2="9.22" y1="-65" y2=".5"/> <line class="cls-20" x1="13.83" x2="13.83" y1="-68.25" y2=".5"/> <line class="cls-12" x1="18.45" x2="18.45" y1="-65" y2=".5"/> <line class="cls-36" x1="23.06" x2="23.06" y1="-68.25" y2=".5"/> <line class="cls-6" x1="27.67" x2="27.67" y1="-65" y2=".5"/> <line class="cls-15" x1="32.28" x2="32.28" y1="-68.25" y2=".5"/> <line class="cls-18" x1="36.89" x2="36.89" y1="-65" y2=".5"/> <line class="cls-27" x1="41.5" x2="41.5" y1="-68.25" y2=".5"/> <line class="cls-26" x1="83" x2="83" y1="-65" y2=".5"/> <line class="cls-31" x1="78.39" x2="78.39" y1="-68.25" y2=".5"/> <line class="cls-33" x1="73.78" x2="73.78" y1="-65" y2=".5"/> <line class="cls-20" x1="69.17" x2="69.17" y1="-68.25" y2=".5"/> <line class="cls-12" x1="64.55" x2="64.55" y1="-65" y2=".5"/> <line class="cls-36" x1="59.94" x2="59.94" y1="-68.25" y2=".5"/> <line class="cls-6" x1="55.33" x2="55.33" y1="-65" y2=".5"/> <line class="cls-15" x1="50.72" x2="50.72" y1="-68.25" y2=".5"/> <line class="cls-18" x1="46.11" x2="46.11" y1="-65" y2=".5"/> <line class="cls-26" y1="-65" y2=".5"/> </pattern> <pattern id="g" width="83" height="65" data-name="Ondulazione punti piccoli 4" patternTransform="translate(22470 22222) scale(4)" patternUnits="userSpaceOnUse" viewBox="0 0 83 65"> <rect class="cls-28" width="83" height="65"/> <line class="cls-13" x1="83" x2="83" y1="65" y2="130.5"/> <line class="cls-13" y1="65" y2="130.5"/> <line class="cls-35" x1="4.61" x2="4.61" y1="61.75" y2="130.5"/> <line class="cls-32" x1="9.22" x2="9.22" y1="65" y2="130.5"/> <line class="cls-25" x1="13.83" x2="13.83" y1="61.75" y2="130.5"/> <line class="cls-10" x1="18.45" x2="18.45" y1="65" y2="130.5"/> <line class="cls-30" x1="23.06" x2="23.06" y1="61.75" y2="130.5"/> <line class="cls-7" x1="27.67" x2="27.67" y1="65" y2="130.5"/> <line class="cls-17" x1="32.28" x2="32.28" y1="61.75" y2="130.5"/> <line class="cls-8" x1="36.89" x2="36.89" y1="65" y2="130.5"/> <line class="cls-34" x1="41.5" x2="41.5" y1="61.75" y2="130.5"/> <line class="cls-13" x1="83" x2="83" y1="65" y2="130.5"/> <line class="cls-35" x1="78.39" x2="78.39" y1="61.75" y2="130.5"/> <line class="cls-32" x1="73.78" x2="73.78" y1="65" y2="130.5"/> <line class="cls-25" x1="69.17" x2="69.17" y1="61.75" y2="130.5"/> <line class="cls-10" x1="64.55" x2="64.55" y1="65" y2="130.5"/> <line class="cls-30" x1="59.94" x2="59.94" y1="61.75" y2="130.5"/> <line class="cls-7" x1="55.33" x2="55.33" y1="65" y2="130.5"/> <line class="cls-17" x1="50.72" x2="50.72" y1="61.75" y2="130.5"/> <line class="cls-8" x1="46.11" x2="46.11" y1="65" y2="130.5"/> <line class="cls-13" y1="65" y2="130.5"/> <line class="cls-13" x1="83" x2="83" y2="65.5"/> <line class="cls-13" y2="65.5"/> <line class="cls-35" x1="4.61" x2="4.61" y1="-3.25" y2="65.5"/> <line class="cls-32" x1="9.22" x2="9.22" y2="65.5"/> <line class="cls-25" x1="13.83" x2="13.83" y1="-3.25" y2="65.5"/> <line class="cls-10" x1="18.45" x2="18.45" y2="65.5"/> <line class="cls-30" x1="23.06" x2="23.06" y1="-3.25" y2="65.5"/> <line class="cls-7" x1="27.67" x2="27.67" y2="65.5"/> <line class="cls-17" x1="32.28" x2="32.28" y1="-3.25" y2="65.5"/> <line class="cls-8" x1="36.89" x2="36.89" y2="65.5"/> <line class="cls-34" x1="41.5" x2="41.5" y1="-3.25" y2="65.5"/> <line class="cls-13" x1="83" x2="83" y2="65.5"/> <line class="cls-35" x1="78.39" x2="78.39" y1="-3.25" y2="65.5"/> <line class="cls-32" x1="73.78" x2="73.78" y2="65.5"/> <line class="cls-25" x1="69.17" x2="69.17" y1="-3.25" y2="65.5"/> <line class="cls-10" x1="64.55" x2="64.55" y2="65.5"/> <line class="cls-30" x1="59.94" x2="59.94" y1="-3.25" y2="65.5"/> <line class="cls-7" x1="55.33" x2="55.33" y2="65.5"/> <line class="cls-17" x1="50.72" x2="50.72" y1="-3.25" y2="65.5"/> <line class="cls-8" x1="46.11" x2="46.11" y2="65.5"/> <line class="cls-13" y2="65.5"/> <line class="cls-13" x1="83" x2="83" y1="-65" y2=".5"/> <line class="cls-13" y1="-65" y2=".5"/> <line class="cls-35" x1="4.61" x2="4.61" y1="-68.25" y2=".5"/> <line class="cls-32" x1="9.22" x2="9.22" y1="-65" y2=".5"/> <line class="cls-25" x1="13.83" x2="13.83" y1="-68.25" y2=".5"/> <line class="cls-10" x1="18.45" x2="18.45" y1="-65" y2=".5"/> <line class="cls-30" x1="23.06" x2="23.06" y1="-68.25" y2=".5"/> <line class="cls-7" x1="27.67" x2="27.67" y1="-65" y2=".5"/> <line class="cls-17" x1="32.28" x2="32.28" y1="-68.25" y2=".5"/> <line class="cls-8" x1="36.89" x2="36.89" y1="-65" y2=".5"/> <line class="cls-34" x1="41.5" x2="41.5" y1="-68.25" y2=".5"/> <line class="cls-13" x1="83" x2="83" y1="-65" y2=".5"/> <line class="cls-35" x1="78.39" x2="78.39" y1="-68.25" y2=".5"/> <line class="cls-32" x1="73.78" x2="73.78" y1="-65" y2=".5"/> <line class="cls-25" x1="69.17" x2="69.17" y1="-68.25" y2=".5"/> <line class="cls-10" x1="64.55" x2="64.55" y1="-65" y2=".5"/> <line class="cls-30" x1="59.94" x2="59.94" y1="-68.25" y2=".5"/> <line class="cls-7" x1="55.33" x2="55.33" y1="-65" y2=".5"/> <line class="cls-17" x1="50.72" x2="50.72" y1="-68.25" y2=".5"/> <line class="cls-8" x1="46.11" x2="46.11" y1="-65" y2=".5"/> <line class="cls-13" y1="-65" y2=".5"/> </pattern> <linearGradient id="d" x1="1254.4" x2="808" y1="1511.7" y2="2313.8" data-name="Sfumatura senza nome 7" gradientUnits="userSpaceOnUse"> <stop stop-color="#b9d42f" offset="0"/> <stop stop-color="#95c020" offset=".38"/> <stop stop-color="#88b91b" offset=".58"/> </linearGradient> <linearGradient id="c" x1="1400.2" x2="1081.8" y1="2108.9" y2="2451" data-name="Sfumatura senza nome 8" gradientUnits="userSpaceOnUse"> <stop stop-color="#b9d42f" offset="0"/> <stop stop-color="#95c020" offset=".65"/> <stop stop-color="#88b91b" offset="1"/> </linearGradient> <linearGradient id="e" x1="-895.14" x2="-1048" y1="1920.1" y2="2330.4" data-name="Sfumatura senza nome 14" gradientTransform="translate(770.49 33.89) rotate(186.59) scale(1 -1)" gradientUnits="userSpaceOnUse"> <stop stop-color="#cee237" offset="0"/> <stop stop-color="#c8de34" offset=".18"/> <stop stop-color="#b9d52e" offset=".4"/> <stop stop-color="#9fc624" offset=".64"/> <stop stop-color="#95c020" offset=".73"/> </linearGradient> <linearGradient id="b" x1="-1071.4" x2="-1468.5" y1="1809.4" y2="2135.7" data-name="Sfumatura senza nome 9" gradientTransform="translate(770.49 33.89) rotate(186.59) scale(1 -1)" gradientUnits="userSpaceOnUse"> <stop stop-color="#b9d42f" offset="0"/> <stop stop-color="#95c020" offset=".42"/> <stop stop-color="#88b91b" offset=".64"/> </linearGradient> </defs> <rect class="cls-38" width="3200" height="3200"/> <path class="cls-56" d="m2883.37,2087.58c-14.55,14-35.47,33.06-60.1,52.38-26.97,21.2-58.42,42.71-90.8,58.39-41.11,19.83-92.58,40.75-136.37,57.59l-.15.04c-102.83,6.36-168.94,69.37-353.54,64.73-266.02-6.73-450.07-23.46-715.82-369.45-265.79-345.98-203.48-741.92-154.48-851.85,11.15-24.93,16.27-46.6,17.67-65.64,15.9-22.74,33.16-45.03,49.66-61.76,11.79-11.96,30.23-24.62,51.72-37.03,21.02,44.85,42.29,99.75,55.05,158.25,32.1,146.89,72.11,366.75,145.56,519.03,137.73,285.67,484.7,504.86,659.45,530.51,224.37,32.93,395.21-36.92,514.99-123.11,5.85,28.75,11.69,50.63,17.15,67.92Z"/> <path class="cls-44" d="m1501.4 929.19c-25.84 14.26-48.32 28.97-61.96 42.81-16.5 16.73-33.76 39.02-49.66 61.76 4.2-57.74-26.24-91.65-30.39-120.86-3.28-22.99 13.51-43.2 31.91-56.3 2.91 6.26 6.83 13.02 12.09 20.17 21.02 28.6 68.39 44.78 98 52.42z"/> <path class="cls-45" d="m1606.7 879.37c-32.7 13.73-71.84 31.37-105.32 49.82-29.61-7.64-76.98-23.83-98-52.42-5.27-7.15-9.18-13.91-12.09-20.17 12.66-9.05 26.13-14.71 34.31-15.58 56.21-6.12 97.82 38.96 181.11 38.34z"/> <path class="cls-44" d="m2908.44,2218.14c-5.27,28.88-18.55,57.09-46.18,64.63-6.37,1.74-12.81,2.75-19.54,3.13h-.04c-21.86-15.67-80.83-53.45-134.05-48.06-34.53,3.53-60.79,11.35-78.1,18.15l-.08.02c-.8-.03-1.6-.1-2.4-.13-11.11-.62-21.72-.59-31.95.05,43.79-16.83,95.26-37.75,136.37-57.59,32.38-15.67,63.83-37.18,90.8-58.39-1.71,24.3,1.3,46.58,14.17,58.95,20.17,19.38,48.43,21.62,71,19.24Z"/> <path class="cls-57" d="m2907.88,2154.36c3.56,13.04,5.12,38.7.56,63.78-22.57,2.38-50.83.14-71-19.24-12.87-12.37-15.87-34.64-14.17-58.95,24.62-19.32,45.55-38.38,60.1-52.38,10.91,34.67,20.17,50.85,24.51,66.78Z"/> <path class="cls-57" d="m2856.7 1966.6c3.15 19.91 6.32 37.46 9.52 53-119.78 86.19-290.63 156.04-514.99 123.11-174.74-25.65-521.72-244.85-659.45-530.51-73.45-152.28-113.46-372.14-145.56-519.03-12.76-58.5-34.03-113.4-55.05-158.25 3.33-1.94 6.74-3.87 10.24-5.78 33.48-18.46 72.62-36.1 105.32-49.82 11.47-0.06 23.73-1 36.93-3.07 210.68-33.07 646.97-61.04 896.95 208.57 320.45 345.59 295.62 751.25 316.09 881.78z"/> <path class="cls-50" d="m1522.9 1841.9s134.9 261.79 279.93 338.7c228.61 121.23 469.45 125.86 602.76 103.01 236.38-40.52 430.21-193.14 430.21-193.14s-406.24 178.62-736.49 65.15c-202.47-69.57-343.42-249.56-443.71-310-100.29-60.45-148.24-75.31-132.71-3.72z"/> <path class="cls-45" d="m1725.2 904.63c-27.19-1.89-160.77-47.86-65.89 109.85 94.88 157.7 369.08 182.7 548.73 329.26 179.64 146.56 439.99 574.41 483.88 618.31 43.9 43.9 169.52 21.62 124.61-245.49-44.9-267.11-176.93-502.48-230.62-567.65s-295.13-262.73-497.06-271.51c-201.93-8.79-286.83 32.58-363.65 27.24z"/> <path class="cls-60" d="m2169.2 924.49c61.74 6.38 101.53 14.95 231.54 95.22 144.61 89.29 179.52 147.12 237.72 235.15 67.38 101.92 75.57 192.36 38.52 135.68-112.35-171.89-224.67-234.18-362.06-283.48s-410.42-209.93-145.72-182.58z"/> <path class="cls-40" d="m2842.7 2285.9c-47.39 2.89-105.99-23.63-212.15-29.92 17.3-6.79 43.57-14.62 78.1-18.15 53.22-5.39 112.19 32.38 134.05 48.07z"/> <path class="cls-60" d="m1432.9 845.9s-15.78 0.34-12.59 8.4 24.6 31.99 61.21 38.88 91.77-9.15 91.77-9.15-64.23-17.21-70.78-19.4c-6.55-2.18-57.76-18.98-69.6-18.73z"/> <path class="cls-4" d="m1393.6 1128.5c-73.33 145.92-97.9 681.94 386.44 1045.5 206.94 155.35 469.19 124.28 602.76 103.01 272.61-43.41 444.91-186.44 444.91-186.44s-420.93 171.92-751.18 58.45c-202.47-69.57-303.79-221.65-410.42-349.97-225.56-271.44-243.47-728.34-272.5-670.57z"/> <path class="cls-3" d="m2099.7 894.05c76.66 6.62 125.99 16.2 286.36 109.68 178.38 103.98 220.87 172.25 291.85 276.09 82.18 120.22 90.94 227.72 45.76 160.85-136.98-202.77-275.64-275.14-445.67-331.64s-506.95-243.37-178.3-214.98z"/> <path class="cls-37" d="m1416.6 1023.2s-231.26 509.29 130.51 929.25c313.72 364.18 440.38 338.08 616.83 343.82 327.01 10.64 540.11-108.87 623.85-161.1 269.93-168.36-283.67 68.33-777.32-302.4-304.07-228.36-429-520.79-513.74-848.71-12.97-50.2-50.56-8.05-80.13 39.14z"/> <path class="cls-4" d="m1473.79,934.27c-19.1,11.9-35.61,24.37-45.41,36.43-11.85,14.58-24.04,34.22-35.17,54.34.62-52.69-24.15-85.11-28.63-112.06-3.54-21.2,8.39-38.96,21.85-50.13,2.5,5.86,5.8,12.23,10.14,19.01,17.34,27.13,54.25,44.08,77.21,52.4Z"/> <path class="cls-4" d="m2827.73,2203.65c-10.75-11.76-13.9-32.26-13.34-54.47-20.96,18.52-45.5,37.18-70.98,50.46-32.36,16.8-73,34.25-107.61,48.22,8.2-.24,16.71.08,25.66,1.02.64.06,1.29.15,1.93.2l.06-.02c85.47,9.29,133.41,35.53,171.37,34.46h.03c5.4-.14,10.54-.85,15.59-2.23,21.94-5.98,31.67-31.38,34.94-57.66-18.05,1.43-40.82-1.56-57.66-19.98Z"/> <path class="cls-3" d="m1439.1 849.05s-15.78 0.34-12.59 8.4 24.6 31.99 61.21 38.88 91.77-9.15 91.77-9.15-64.23-17.21-70.78-19.4c-6.55-2.18-57.76-18.98-69.6-18.73z"/> <path class="cls-45" d="m1408.6 1028.7c0.02 13.05-3.69 25.56-6.76 38.07-10.03 37.01-20.97 73.75-29.24 111.19-57.74 245.63-3.55 479.24 128.2 691.04 86.88 139.18 197.66 269.17 343.38 348.63 131 72.85 275.73 92.75 423.77 87.13 57.26-1.98 114.05-11.91 169.89-24.5 99.46-22.98 196.62-56.71 288.36-101.63 45.86-22.5 90.26-48.08 132.27-77.21l1.15 1.63c-83.61 59.43-176.62 104.83-272.88 139.84-102.57 36.34-209.41 64.79-318.49 70.85-128.28 6.49-259.85-6.28-378.42-58.49-89.03-38.46-169.03-96.07-237.58-164.36-54.89-54.55-103.07-115.45-146.83-179.15-29.06-42.65-55.51-87.12-78.44-133.37-69.38-138.59-104.38-295.75-90.57-450.66 6.9-90.04 32.11-177.15 61.39-262.1 3.67-12.1 8.02-24.21 8.79-36.88l2-0.01z"/> <path class="cls-4" d="m1517 1652.7c-33.84-46.46-83.4-153.83-81.72-225.17 1.78-75.63 18.83-127.74 18.83-127.74s5.39 209.02 73.05 250.74c33.05 20.38 24.79 93.35 86.12 67.39s109.72-40.39 109.72-40.39-51.51 52.71-59.7 76.37-37.96 71.28-74.76 59.91c-29-8.96-57.06-41.24-71.54-61.11z"/> <path class="cls-61" d="m1901.77,746.34c-47.04,209.1-170.3,448.05-248.04,609.15-70.79,146.52-71.82,309.01-68.76,374.06-.03-.03-.1-.03-.13-.06,0,0-217.79-159.78-138.62-425.17,3.13-10.54,6.3-20.66,9.49-30.32,38.08-116.16,78.31-172.05,124.6-217.55-1.69,4.03-3.38,8.06-5.07,12.09-17.54,42.05-111,107.81-64.7,180.69,4.02,6.31,32.38,22.45,35.78,92.71,6.04,124.45,162.97-156.34,183.51-200.45,85.99-184.19,138.96-309.23,171.94-395.15Z"/> <path class="cls-58" d="m1916.5 662.49c3.19 20.47 2.11 63.5-8.7 147.41-17.23 133.56-241.86 533-246.51 552.74-31.22 131.87 26.21 118.78 67.33 88.15 35.44-26.39 7.55-22.03 70.67-47.13 34.77-13.86 77.27-19.72 108.41-22.17-3.82 5.58-7.55 10.93-11.21 16.14-111.65 158.76-152.72 147.55-215.08 245.39-54.64 85.79-61.73 103-96.45 86.53-3.06-65.06-2.03-227.55 68.76-374.06 88.37-183.13 235.54-466.87 262.79-693z"/> <path class="cls-41" d="m1918.61,642.92s14.81,24.83,33.75,66.41c53.78,118.29,140.85,372.19,16.03,577.6-22.27,36.67-42.38,67.83-60.68,94.56-31.13,2.45-73.63,8.31-108.41,22.17-63.11,25.1-35.23,20.75-70.67,47.13-41.12,30.63-98.55,43.72-67.33-88.15,4.65-19.75,229.28-419.18,246.51-552.74,10.81-83.91,11.89-126.94,8.7-147.41.82-6.53,1.48-13.03,2.07-19.47t.03-.1Z"/> <path class="cls-54" d="m1918.55,643.12c-3.01,33.21-8.77,67.82-16.78,103.22-32.98,85.92-85.95,210.95-171.94,395.15-20.55,44.1-177.47,324.9-183.51,200.45-3.39-70.26-31.75-86.4-35.78-92.71-46.29-72.88,47.16-138.64,64.7-180.69,1.69-4.03,3.38-8.06,5.07-12.09,44.98-44.33,95.65-78.81,155.54-149.41,122.13-144.13,178.86-256.3,182.62-263.68.03-.1.06-.2.09-.23Z"/> <path class="cls-41" d="m1655.9 2255.2s-152.84-357.17-57.97-731.45c63.63-251.05 150.29-368.12 204.39-488.53 116.97-260.34 116.56-384.54 116.56-384.54s-2.76 185.46-159.62 496.56c-41.59 82.49-117.22 197.81-167.97 509.68-33.81 207.75 80.14 535.44 84.21 571.94 2.66 23.88-19.58 26.34-19.58 26.34z"/> <path class="cls-5" d="m1933 686.64s72.18 158.37 82.8 272.27c10.61 113.9-7.82 224.53-7.82 224.53s-30.15-202.26-42.49-263.24-32.48-233.55-32.48-233.55z"/> <path class="cls-61" d="m2526.6 1279.7c-63.04 59.98-161.12 149.96-216.6 184.64-86.32 54.04-292.62 182.94-466.86 241.13-125.66 41.98-252.43 107.66-313.27 140.97-58.35-33.11 50.45-213.09 83.39-249.79 36.51-40.73 122.69-118.81 327.76-166.45s399.27-70.3 491.61-115.78c46.37-22.82 98.9-56.48 93.98-34.72z"/> <path class="cls-41" d="m2526.6 1279.7c-4.9 21.56-66.41 97.72-246.71 293.03-121.2 131.34-190.69 303.52-444.53 316.79-12.5-29.28-28.63-99.26 60.68-165.17 116.85-86.19 329.49-190.86 380.39-233.24 8.98-7.46 17.65-14.84 26.02-22.09 2.64-1.61 5.15-3.16 7.55-4.69 55.48-34.67 153.56-124.66 216.6-184.64z"/> <path class="cls-58" d="m2302.4 1469c-8.37 7.25-17.04 14.63-26.02 22.09-50.9 42.38-263.54 147.05-380.39 233.24-89.31 65.91-73.18 135.88-60.68 165.17-78.81 4.14-175.4-7.04-296.87-39.56-3.25-0.85-6.1-2.02-8.63-3.53 60.85-33.31 187.61-98.99 313.27-140.97 169.36-56.59 369.03-179.93 459.31-236.44z"/> <path class="cls-54" d="m1807.9 1707s45.55-9.49 186.46-80.55c290.94-146.72 314.7-158.86 467.63-295.65 150.66-134.76-45.36 65.26-215.5 64.33-211.87-1.16-438.58 311.86-438.58 311.86z"/> <path class="cls-41" d="m1340.8 2041.2s41.25-94.27 126.79-159.13c212.8-161.33 398.6-195.22 544.27-265.4 312.21-150.43 514.7-336.96 514.7-336.96s-129.54 132.56-241.15 200.89c-114.32 69.98-132.97 77.83-231.49 134.78-161.66 93.44-326.93 101.33-565.42 269.19-90.03 63.37-88.6 96.55-136.02 174-11.39 18.61-11.69-17.36-11.69-17.36z"/> <path class="cls-4" d="m2062.7 1406.3s-158.48 37.07-200.78 52.12c-27.28 9.71-184.58 54.59-252 157s-143.23 235.07-32.75 230.98c25.15-0.93 178.85-325.52 485.53-440.09z"/> <path class="cls-5" d="m2500 1315.4s-93.82 106.75-168.03 193.8c-78.78 92.41-145.87 159.33-145.87 159.33s87.83-161.38 136.85-199.7 177.05-153.43 177.05-153.43z"/> <path class="cls-51" d="m1341.1 2085.6c-109.32 212-272.96 312.96-293.04 379-2.76 9.04-5.28 17.88-7.56 26.48-75.68 14.4-160.84 15.88-250.24-7.48-295.68-77.32-382.72-180.92-382.72-180.92l687.96-1143c422.4 174.44 367.84 688.88 245.6 925.88z"/> <path class="cls-2" d="m1507.8 2125.6c-41.56 89.68-106.48 176.64-200.4 248.52-52.08 39.88-147.76 94.4-266.88 117 2.28-8.6 4.8-17.44 7.56-26.48 20.08-66.04 183.72-167 293.04-379 22.56-43.68 42.8-96.84 58.16-155.52 6.48 36.12 9.64 71.84 8.76 106.8-0.6 24.04 24.16 81.24 47.52 87.04 18.4 4.52 35.8 4.84 52.24 1.64z"/> <path class="cls-42" d="m1507.8 2125.6c-16.44 3.2-33.84 2.88-52.24-1.64-23.36-5.8-48.12-63-47.52-87.04 0.88-34.96-2.28-70.68-8.76-106.8 68-259.64 40.76-628.08-303.76-770.36l5.08-8.44s110.24 31.12 212.88 121.68c90.92 80.24 243.52 312.84 254.04 560.8 3.76 89.44-13.6 192.28-59.72 291.8z"/> <path class="cls-4" d="m537.75 2383.9s167.41 89.69 357.31 107.94c98.9 9.51 122.31-15.83 122.31-15.83s106.45-197.21 135.23-234.62 208.27-305.93 192.33-319.88c-33.31-29.15-229 299.39-329.85 376.68-75.87 58.15-333.85 128.1-385.65 103.64l-91.68-17.94z"/> <ellipse class="cls-49" transform="translate(-1100.4 1460.6) rotate(-56.04)" cx="822.23" cy="1764.2" rx="679.25" ry="532.86"/> <polygon class="cls-1" points="1213.1 2093.7 1179.2 2103.1 1161.5 2125.2 1148.9 2152.3 1125.4 2169.2 1099.8 2183.3 1086.6 2211.5 1065.6 2231.3 1035.6 2238.6 1020.2 2267 988.06 2269.4 966.99 2290 938.98 2297.7 914.43 2312.4 887.66 2322.1 860.22 2329.7 835.84 2348.2 808.69 2359.3 778.05 2352 749.18 2349 722.14 2371.4 693.06 2361.2 663.68 2370.7 634.83 2365.7 608.83 2347.6 578.92 2349.5 556.52 2326.4 529.56 2318.7 500.71 2313.3 477.49 2296.6 446.47 2290.8 427.14 2268.4 400.95 2254 393.83 2221.3 379.57 2196.9 344.49 2186.8 344.42 2153.1 318.46 2134.5 316.79 2103.7 300.88 2079.2 287.26 2053.2 294.16 2022 292.16 1993.7 268.11 1968.3 287.01 1937.8 278.35 1910 277.5 1881.6 272.07 1852.7 271.98 1823.8 275.37 1795.2 279.22 1766.5 300.89 1742 292.88 1710.4 303.02 1683.4 318.1 1658.2 321.04 1628.7 346.15 1608.3 357.5 1582.4 367.87 1555.8 379.49 1529.8 400.43 1509.3 412.19 1483.1 429.69 1460.8 438.35 1431.5 453.4 1406.5 484.25 1395.3 501.15 1372.1 526.12 1357 546.66 1337.5 554.99 1303.2 586.37 1296.4 612.69 1284.2 632.55 1262.9 660.61 1254.2 682.76 1235.8 709.9 1226.6 736.31 1216.5 760.14 1199.8 788.16 1194 812.62 1176.1 838.97 1161.7 867.47 1155.1 897.47 1160.5 926.21 1159.1 955.08 1150.2 983.39 1163.8 1011 1172 1039.4 1173.7 1071.2 1165.5 1094.7 1186.9 1125.9 1187 1149.3 1205.5 1178.5 1213.2 1200.6 1232.9 1223.6 1250.8 1246.4 1269.2 1257.9 1297.9 1282.5 1314.9 1298.9 1338.8 1304.6 1368.8 1320.1 1392.6 1334.5 1417.4 1333.5 1448 1352.2 1471.7 1360 1499.1 1353.1 1529.2 1357.2 1556.9 1380.4 1583.3 1373.3 1612.4 1376.5 1641.1 1371.6 1669.5 1379 1699 1358.7 1725.2 1359.8 1754.2 1360.9 1783.8 1352.1 1811.2 1337 1836.6 1324 1862.1 1316.9 1889.8 1297.7 1912.3 1292.8 1941.2 1291.9 1973 1260.8 1988.3 1246.8 2012.8 1238.1 2040.9 1219.8 2062.8"/> <path class="cls-59" d="m678.57 1500.6c24.21 71.09 90.86 165.91 90.86 165.91s36.6 63.27 56.35 33.38c19.74-29.89 163.19-363.17 167.49-389.89 7.12-44.2 45.8-119.44-164.12-85.38-40.85 6.63-190.46 67.14-202.85 97.95-12.39 30.8 43.42 152.07 52.26 178.03z"/> <path class="cls-59" d="m963.12 1414.9c-43.41 75.52-86.67 207.06-86.67 207.06s-32.23 80.71-1.23 75.8c30.99-4.92 343.93-128.55 365.95-144.91 36.43-27.07 109.76-49.33-5.37-211.8-22.4-31.61-131.85-119.98-160.4-107.77s-96.42 154.04-112.27 181.62z"/> <path class="cls-59" d="m544.68 1650.8c60.27 29.93 162.64 56.67 162.64 56.67s63.27 20.87 57.09-3.19c-6.19-24.05-124.27-262.85-138.34-279.24-23.28-27.1-45.91-83.43-158.8 15.82-21.97 19.31-79.61 110.04-68.14 131.78s123.56 67.23 145.57 78.15z"/> <path class="cls-59" d="m520.53 1893.9c78.14-28.61 194.96-97.36 194.96-97.36s75.07-38.87 53.2-53.49c-21.87-14.63-293.86-109.41-318.31-110.59-40.44-1.96-131.88-33.79-143.41 154.64-2.52 41.23-4.51 163.01 20.95 170.99s164.07-53.73 192.6-64.18z"/> <path class="cls-59" d="m651.1 2088.6c45.28-76.92 92.43-209.63 92.43-209.63s34.5-81.65 3.92-75.54-341.94 141.51-364.13 158.68c-36.7 28.39-109.42 53.44-2.32 210.74 20.84 30.61 125.02 114.33 153.46 101.05s100.09-157.21 116.63-185.29z"/> <path class="cls-59" d="m1124.8 1614.8c-75.02 22.23-189.24 83.31-189.24 83.31s-72.97 33.56-53.75 51.6 265.14 148.99 287.82 152.91c37.51 6.47 90.44 41.8 145.71-150.27 10.75-37.37 16.98-174.24-6.11-185.54-23.09-11.31-157.04 39.88-184.44 48z"/> <path class="cls-59" d="m853.8 2094.9c0.42-81.55-19.71-201.79-19.71-201.79s-8.69-77.6-26.87-53.3-174.78 320.94-183.01 347.12c-13.6 43.31-52.75 108.18 80.77 142.98 25.98 6.77 128.78-5.87 142.73-33.58s5.93-171.66 6.08-201.44z"/> <path class="cls-59" d="m1097.9 1886.4c-54.51-43.92-160.95-84.87-160.95-84.87s-63.29-31.37-69.76 2.45-3.23 371.54 4.1 394.92c12.12 38.68 6.67 118.16 198.06-16.54 37.24-26.21 157.99-150.93 156.84-181.69-1.16-30.77-108.38-98.24-128.29-114.28z"/> <path class="cls-53" d="m814.95 1773.5c4.4-0.94 16.59-7.07 24.91-3.06s15.59-9.18 14.39-19.76c-1.19-10.58-9.74-41.74-15.76-38.37-2.54 1.43-7.58 16.37-14.76 15.46-3.83-0.49 0.75 9.97 1.89 21.3s-29.74 11.01-33.11 18.28 18.37 7.02 22.44 6.15z"/> <path class="cls-55" d="m387.04 1884.4c-27.03 34.22 53.03 6.93 80.36 1.64s89.19-34.56 95.9-40.77c0 0-153.84 10.74-176.26 39.13z"/> <path class="cls-39" d="m637.03 1882.1s-117.78 67.89-140.74 86.24c-30.32 24.23-70.45 67.54-77.21 88.04s100.29-54.19 129.58-80.27c23.85-21.24 88.38-94.02 88.38-94.02z"/> <path class="cls-47" d="m369.72 1826.9c3.28 12.05 259.73-29.31 259.73-29.31s-275.84-29.85-259.73 29.31z"/> <path class="cls-55" d="m869.65 1405s8.81 19.58-11.89 49.6c-20.7 30.03-11.59 151.4-11.59 151.4s35.62-164.33 36.79-180.06-13.31-20.94-13.31-20.94z"/> <path class="cls-55" d="m693.37 1363.9s7.26 61.45 39.9 145.45 49.85 104.7 49.85 104.7 8.82-145.63-89.75-250.16z"/> <path class="cls-55" d="m1180.5 1302.1s-38.43 17.08-69.66 58.63-50.08 63.1-50.08 63.1 83.36-53.39 99.71-75.59c16.35-22.19 20.03-46.14 20.03-46.14z"/> <path class="cls-39" d="m1115.4 1442.6s-75.02 17.04-119.27 79.53c-44.24 62.5-83.99 115.69-83.99 115.69s133.48-81.7 158.67-113.91 44.58-81.32 44.58-81.32z"/> <path class="cls-55" d="m1213.5 1671.3s-30.95 43.88-74.14 43.67-57.76-13.8-109.36-4.3c-51.61 9.5-74.8 18.83-74.8 18.83s131.04-58.31 153.27-57.21c22.24 1.11 105.03-0.99 105.03-0.99z"/> <path class="cls-55" d="m1007.4 1620.9s57.23-31.46 80.94-60.43c23.72-28.97 163.45-101.65 163.45-101.65s-29.41 36.81-89.01 79.92c-59.59 43.12-155.39 82.16-155.39 82.16z"/> <path class="cls-39" d="m917.97 1870.4s102.39 105.65 97.71 203.04-97.71-203.04-97.71-203.04z"/> <path class="cls-39" d="m539.13 1572.5s23.75-1.89 55 21.02 120.67 94.66 120.67 94.66-49.49-13.68-101.75-52.43-73.92-63.25-73.92-63.25z"/> <path class="cls-47" d="m541.84 1425.5s26.25-10.99 40.64 16.86c14.4 27.85 57.73 110.04 57.73 110.04s-63.89-45.23-82.26-79.87c-18.37-34.63-16.12-47.04-16.12-47.04z"/> <path class="cls-55" d="m485.15 2072.2s-36.93 5.56-51.18 25.62c-14.25 20.07-35.45 54.49-32.44 58.26s42.19-13.12 83.62-83.88z"/> <path class="cls-47" d="m1161.6 1819.4s92.4 19.85 95.39 0c9.2-61.1-258-44.14-258-44.14l162.61 44.14z"/> <path class="cls-39" d="m821.35 2011.9s13.28 164.84-43.14 252.61c-56.42 87.76 43.14-252.61 43.14-252.61z"/> <path class="cls-47" d="m687.16 2277.9s-18.29-16.75-1.58-50.07 65.69-132.43 65.69-132.43-12.29 92.05-32.89 133.91-31.22 48.59-31.22 48.59z"/> <path class="cls-55" d="m441.52 1749.5s52.78 17.79 141.66 21.3c88.87 3.51 117.52-4.03 117.52-4.03s-105.93-66-259.17-17.27z"/> <path class="cls-47" d="m787.06 1329.6s-9.31 40.29 7.4 82.24 23.69 66.1 23.69 66.1 5.85-92.83-3.28-114.94-27.8-33.4-27.8-33.4z"/> <path class="cls-55" d="m489.24 2195.2s78.14-59.19 133.78-155.98 105.1-180.27 105.1-180.27-148.4 165.95-179.46 217.07c-31.07 51.12-59.42 119.18-59.42 119.18z"/> <path class="cls-55" d="m923.8 1836.8s136.74 54.01 162.65 140.79c25.91 86.77-162.65-140.79-162.65-140.79z"/> <path class="cls-55" d="m933.7 2113.6s-0.49 61.18 23.98 42.78-22.2-120-22.2-120l-1.78 77.22z"/> <path class="cls-38" d="m569.35 1694.9c32.24 4.64 63.55 12.86 94.69 21.98 31.06 9.41 61.76 19.68 91.27 33.48-32.25-4.62-63.56-12.84-94.69-21.98-31.05-9.43-61.75-19.7-91.27-33.48z"/> <path class="cls-38" d="m680.28 1598.7c25.48 22.25 53.03 61.41 65.25 92.98-25.52-22.21-52.98-61.43-65.25-92.98z"/> <path class="cls-46" d="m458.43 1461.2s-30.02 30.02-25.52 43.53 85.56 72.05 85.56 72.05-75.05-39.03-82.56-48.03c-7.51-9.01-25.52 16.51-25.52 16.51s7.51-37.53 12.01-45.03c4.5-7.51 36.03-39.03 36.03-39.03z"/> <path class="cls-38" d="m683.58 1860.5c11.21-18.25 36.25-36.77 57.04-42.03-11.17 18.28-36.28 36.72-57.04 42.03z"/> <path class="cls-38" d="m808.17 1851.5c-7.02 31.14-17.54 61.06-28.94 90.74-11.68 29.58-24.18 58.72-40.11 86.38 7-31.15 17.52-61.06 28.94-90.74 11.7-29.57 24.21-58.7 40.11-86.38z"/> <path class="cls-38" d="m883.22 1810.9c17.89 14.93 33 32.28 47.48 50.31 14.25 18.22 27.66 36.91 38.08 57.76-17.9-14.92-33.02-32.27-47.48-50.31-14.23-18.23-27.64-36.92-38.08-57.76z"/> <path class="cls-38" d="m895.23 1743.4c21.45-4.25 43-4.84 64.68-4.5 21.68 0.64 43.18 2.23 64.41 7.5-21.45 4.28-43 4.86-64.68 4.5-21.67-0.67-43.17-2.25-64.41-7.5z"/> <path class="cls-38" d="m806.67,1525.73c5.01,25.58,6.33,51.34,6.75,77.25.11,25.91-.71,51.69-5.25,77.36-5.03-25.57-6.36-51.34-6.75-77.25-.09-25.91.74-51.69,5.25-77.36h0Z"/> <path class="cls-38" d="m886.23 1675.8c23.39-20.24 48.85-37.41 74.88-53.87 26.19-16.2 52.78-31.56 81.23-43.7-23.37 20.26-48.83 37.43-74.88 53.87-26.2 16.18-52.79 31.54-81.23 43.7z"/> <path class="cls-46" d="m425 2204.1s69.77 50.1 87.82 44.92 111.12-131.57 111.12-131.57-85.18 154.38-97.31 152.82c-46.09-5.91-101.63-66.18-101.63-66.18z"/> <path class="cls-46" d="m1115.9 2134.2s19.41-34.14 17.4-42.84c-4.24-18.37-31.73-40.58-60.25-68.28-19.54-18.98 76.31 73.64 101.23 40.28 9.9-13.25 16.84-24.42 16.62-28.8-0.72-14.22-121.87-142.02-121.87-142.02s122.55 104.54 130.54 113.13c8.48 9.12 23.88-4.14 23.88-4.14s-17.27 34.15-23.62 40.18-83.93 92.49-83.93 92.49z"/> <path class="cls-46" d="m1078.9 1325.6c-6.83 16.5-86.73 137.12-86.73 137.12s128.33-237.57 86.73-137.12z"/> <path class="cls-5" d="m1320.9 1291.3s117.64 138.18 156.85 229.68c15.59 36.37 59.75 175.53 72.83 216.61 13.07 41.08 3.73 97.1-39.21 78.43-42.95-18.67-34.35-193.42-58.63-273.72-24.28-80.29-131.84-251-131.84-251z"/> <path class="cls-37" d="m878.91 2334.8c-161.33 64.5-331.27 52.82-457.27-48.76-215.9-174.04-221.05-546.05-11.43-830.94 27.59-37.51 57.52-71.64 89.23-102.19-66.05 193.71-155.6 528.05-49.56 675.83 112.09 156.17 245.65 271.33 429.04 306.06z"/> <path class="cls-46" d="m848.61 2111.4s-10.73 165.8-26.43 176.1c-19.8 12.99-18.5 15.02-51.46 22.81-19.77 3.59-27.21 1.02-32.19-8.58-7.46-14.37 2.34-95.49 2.34-95.49s-12 88.22-21.67 98.67-81.48-8.99-81.48-8.99 30.56 25.76 82.33 31.38c4.7 0.51 45.29 4.57 105.35-21.27 11.24-4.84 17.22-20.52 21.43-37.16 4.21-16.63 1.78-157.48 1.78-157.48z"/> <path class="cls-46" d="m1067.3 1654.8s149.8-58.27 173.22-62.27c30.07-5.13 32.45-8.28 61.44-3.63 20.67 3.31-234.66 65.91-234.66 65.91z"/> <path class="cls-46" d="m331.06 2070.4c-5.59-13.55-3.95-44.47-1.78-34.04 6.67 31.93 92.94-34.32 92.94-34.32s-61.49 55.29-72.45 74.83c-5.74 10.22 49.57 106.29 37.65 91.99-23.96-28.75-54.8-94.64-56.37-98.46z"/> <path class="cls-46" d="m338.15 1913.9c-7.79-51.62 39.78-45.95 85.73-59.67 13.2-3.94-59.22 12.97-90.53-4.11-7.54-4.12-18.52 2.06-8.92-82.3 12.35-100.13 23.32-104.94 73.38-113.19 18.53-3.05 168.11 16.74 168.11 16.74s-108.44-43.47-157.82-40.04c-45.9 3.19-68.37 21.74-91.9 108.36-11.96 44.02-5 187.16 14.4 209.87 7.94 9.3 181.06-65.16 181.06-65.16s-168.03 65.84-173.52 29.49z"/> <path class="cls-43" d="m1391.3 2171.9c3.55 116.2 50.64 156.31 110.13 199.17 8.51 6.1 17.96 12.31 28.3 18.48 42.9-75.73 36.18-171.8 9.31-272.41-9.26-34.66-36.84-144.88-49.74-226.98-31.03 47.04-101.34 171.93-98 281.74z"/> <path class="cls-52" d="m1540.4 2128.2c21.88 82.9 32.31 185.62-10.6 261.35 106.49 63.5 303.57 124.14 490.74 99.52 68.85-9.02 275.95-64.99 299.45-176.6 20.1-95.55-82.76-357.66-255.88-367.99-173.2-10.27-561.98-73.61-574.74-54.31 12.9 82.1 38.99 192.41 51.03 238.04z"/> <path class="cls-56" d="m2384.86,1745.67c-1.64-5.05-236.25,67.68-464.39,104.8-194.54,31.66-384.26,29.43-420.5,36.27-4.74.89-6.29,1.26-6.29,1.26,57.36,235.67,199.5,441.84,382.32,529.15,264.67,126.39,503.16-19.71,540.33-341.92,12.36-107.24-.49-222.32-31.48-329.56"/> <path class="cls-48" d="m1500 1886.7 0.29 1.11c55.98 224.22 197.6 430.36 377.69 522.4 256.82 131.26 494.6-19.2 531.07-336.11 12.13-105.48 0.45-216.09-30.03-321.58-0.58-2.02-1.2-4.06-1.8-6.12l-26.62 4.26-37.04 5.93c2.27 1.38-211.38 35.32-200.47 32.04l-180.12 28.82c-53.05 8.13-112.57 18.01-112.57 18.01l-256.05 40.92-41.32 6.62-23.04 3.7z"/> <path class="cls-1" d="m1523 1883c53.12 210.63 186.8 404.32 356.64 491.13 242.5 123.94 466.9-17.03 501.2-314.92 11.64-101.16-0.15-207.46-30.27-308.54l-417.63 66.79c-18.13 2.68-112.57 18.01-112.57 18.01l-256.05 40.92-41.32 6.62z"/> <path class="cls-59" d="m1564.3 1876.4c18.45 28.04 40.71 21.6 57.8 22.98 13.25 1.07 124.23-35.98 198.25-63.9l-256.05 40.92z"/> <path class="cls-59" d="m2037.9 1894.4s84.72 94.07 143.6 137.52c21.5 15.86 124.54 105.21 145.91 99.96 21.4-5.26 40.74-147.52 38.47-188.83-6.5-117.32-24.9-163.22-45.59-181.39l-239.02 36.78c-40.06 12.48-72.37 23.63-79.13 28.22-19.33 13.22 35.76 67.74 35.76 67.74z"/> <path class="cls-59" d="m1712.9 1884.9c50.69-25.78 139.99-39.71 139.99-39.71s54.62-13.98 52.2 14.67-77.83 302.48-88.42 320.15c-17.52 29.23-30.57 94.8-146.13-49.43-22.49-28.06-86.81-151.34-79.29-176.13s103.15-60.13 121.66-69.54z"/> <path class="cls-59" d="m2074.1 2163.2c-36.54-75.5-79.13-199.64-79.13-199.64s-29.83-77.47-9.12-66.14 237.93 189.97 254.06 209.2c26.68 31.81 76.84 67.85 19.74 182.8-11.11 22.37-72.64 74.24-92.56 57.13s-79.65-155.79-93-183.36z"/> <path class="cls-59" d="m1848.5 2120.5c10.09-74.53 49.73-178.43 49.73-178.43s20.45-68.3 39.02-40.89 167.18 343.14 173.61 369.39c10.63 43.43 48.98 113.88-115.06 107.2-31.92-1.3-153.1-42.43-166.18-71.73-13.07-29.3 15.19-158.33 18.87-185.54z"/> <path class="cls-53" d="m1920.6 1843.7c7.1 4.8 13.88 18.28 16.62 9.41s12.09-10.71 14.92-12.57c2.58-1.69 14.52-14.92 9.46-19.58s-21.73 14.72-26.15 3.49c-0.93-2.32-0.95-7.32-2.46-6.98-13.27 2.93-46.88 2.9-12.39 26.24z"/> <path class="cls-39" d="m2097.2 1831.4s94.27-9.82 114.93-6.98c27.27 3.75 68.38 19.14 81.18 34.01 12.8 14.86-78.66 11.72-106.19 5.62-22.43-4.97-89.92-32.65-89.92-32.65z"/> <path class="cls-55" d="m1689.9 1992.3s36.36 21.61 59.76-5.31c23.39-26.92 25.26-48.56 57.55-71.67s49.05-28.8 49.05-28.8-97.21 26.92-108.81 41.7c-11.6 14.79-57.55 64.07-57.55 64.07z"/> <path class="cls-39" d="m1939.2 1994.4s-8.64 161.5 37.27 249.07c45.9 87.57-37.27-249.07-37.27-249.07z"/> <path class="cls-55" d="m2264.4 1913.9s22.55-17.69 39.23-7.87 43.54 28.68 43.58 34.04-28.78 13.92-82.81-26.17z"/> <path class="cls-47" d="m1784.1 2097.8s-41.4 75.62-51.87 59.03c-32.21-51.06 120.63-200.66 120.63-200.66l-68.76 141.63z"/> <path class="cls-39" d="m2054.8 2066s66.17 161.35 135.93 207.96c69.75 46.61-135.93-207.96-135.93-207.96z"/> <path class="cls-47" d="m2246.2 2230s2.49-26.88-21.43-47.49-94.68-82.36-94.68-82.36 47.67 77.9 77.51 104.04 38.61 25.82 38.61 25.82z"/> <path class="cls-55" d="m2317 2030.8s-68.84-6.63-142.19-62.11-137.41-102.42-137.41-102.42 154.58 62.32 194.23 90.59 85.37 73.94 85.37 73.94z"/> <path class="cls-55" d="m1921.1 1966.7s-50.3 134.79-25.75 231.43 25.75-231.43 25.75-231.43z"/> <path class="cls-55" d="m2039 2230s27.5 56.53 6.01 54.58-41.36-125.21-41.36-125.21l35.35 70.63z"/> <path class="cls-38" d="m2062.2 1840.1c-14.48 6.97-36.47 5.37-49.73-3.74 14.47-7.02 36.45-5.32 49.73 3.74z"/> <path class="cls-38" d="m1990.5 1908.8c22.75 16.91 42.93 36.48 62.54 56.76 19.39 20.49 38.02 41.54 53.87 65.05-22.77-16.89-42.95-36.46-62.54-56.76-19.37-20.5-38-41.55-53.87-65.05z"/> <path class="cls-38" d="m1931.64,1917.61c5.02,25.36,6.37,50.92,6.8,76.61.13,25.7-.68,51.27-5.2,76.73-5.05-25.36-6.39-50.91-6.8-76.61-.11-25.7.71-51.27,5.2-76.73h0Z"/> <path class="cls-38" d="m1895 1862.3c-13.61 28.95-42.79 64.08-68.85 82.67 13.56-28.97 42.83-64.03 68.85-82.67z"/> <path class="cls-46" d="m2355.9 1999.3s-15.63 89.72-27.75 96.07c-12.12 6.36-119-53.45-119-53.45s115.05 90.7 120.95 81.74c22.43-34.01 25.8-124.37 25.8-124.37z"/> <path class="cls-46" d="m1949.1 2361.9s-25.76-19.7-28.54-29.03c-5.87-19.69-0.82-57.33 2.36-100.71 2.18-29.72-8.71 115.63-37.11 100.06-11.28-6.18-20.03-12.26-21.86-16.46-5.94-13.66 3.03-207.34 3.03-207.34s-20.09 172.95-20.61 185.87c-0.55 13.71-14.83 10.93-14.83 10.93s24.6 21.03 30.73 22.7 86.82 33.98 86.82 33.98z"/> <path class="cls-46" d="m2084.3 2175.3s79.66 147.38 92.78 147.23c16.55-0.19 16.75 2.5 38.13-10.65 12.35-8.9 15.25-15.89 13.68-27.89-2.34-17.96-43.79-87.25-43.79-87.25s45.8 74.52 55.72 78.25c9.91 3.73 40.3-58.77 40.3-58.77s-5.14 42.84-30.8 80.09c-2.33 3.38-22.59 32.27-66.76 45.44-8.26 2.46-18.5-8.41-28.2-21.25s-71.09-145.19-71.09-145.19z"/> <path class="cls-46" d="m1762 1886.4s-107.4 38.57-121.91 49.34c-18.64 13.84-21.33 12.39-35.02 34.64-9.77 15.87 156.94-83.99 156.94-83.99z"/> <path class="cls-46" d="m2347.4 1817c-2.99-16.04-17.65-43.75-14.19-32.72 10.59 33.79-65.82 25.64-65.82 25.64s58.05 13.31 72.71 24.68c7.67 5.95 20.37 129.41 20.48 108.75 0.23-41.53-12.34-121.83-13.19-126.35z"/> <path class="cls-37" d="m1624.1 2138.5c78.48 149.69 202.67 265.73 343.21 303.19 240.81 64.18 438.42-126.64 441.33-426.28 0.39-39.44-2.6-78.8-8.71-117.57-55.13 148.76-167.28 387.96-318.05 389.02-159.35 1.09-312.23-34.7-457.79-148.35z"/> <path class="cls-4" d="m2087 2463.4s-73.96 5.41-124.02-11.49c-144.23-48.69-219.73-127.08-239.87-142.67-37.2-28.8-119.64-143.02-112.56-127.03 7.47 16.88 36.27 53.19 34.76 90.72-1.5 37.52-18.95 69.65-29.12 89-14.49 27.54-48.87 39.6-48.87 39.6s70.93 46.83 198.92 72.92c56.08 11.43 220.28 34.86 320.76-11.03z"/> <path class="cls-5" d="m1487 1903.1s-35.08 60.6-58.29 116.55c-15.53 37.43-33.51 103.15-32.94 139.65 0.34 21.44 0.21 52.58 22.5 45.81s6.94-87.24 25.44-131.05c27.21-64.41 43.27-170.96 43.27-170.96z"/> </svg>