<?xml version="1.0" encoding="iso-8859-1"?>
<!-- Uploaded to: SVG Repo, www.svgrepo.com, Generator: SVG Repo Mixer Tools -->
<svg height="800px" width="800px" version="1.1" id="Layer_1" xmlns="http://www.w3.org/2000/svg" xmlns:xlink="http://www.w3.org/1999/xlink" 
	 viewBox="0 0 512 512" xml:space="preserve">
<path style="fill:#0DCD9B;" d="M157.957,76.255L136.17,136.17h21.787c16.545,0,29.957-13.412,29.957-29.957
	S174.503,76.255,157.957,76.255z"/>
<path style="fill:#12F8BC;" d="M128,106.213c0-16.545-13.412-29.957-29.957-29.957s-29.957,13.412-29.957,29.957
	s13.412,29.957,29.957,29.957l59.915,21.787V76.255C141.412,76.255,128,89.668,128,106.213z"/>
<path style="fill:#8FCEFA;" d="M454.809,136.17h-32.681v32.681h32.681c9.024,0,16.34-7.316,16.34-16.34
	C471.149,143.486,463.833,136.17,454.809,136.17z"/>
<path style="fill:#B5E6F8;" d="M438.468,152.511c0-9.024-7.316-16.34-16.34-16.34H40.851c0,48.131,39.018,87.149,87.149,87.149
	c36.57,0,67.859-22.536,80.79-54.468h213.337C431.152,168.851,438.468,161.535,438.468,152.511z"/>
<path style="fill:#FFA46E;" d="M460.255,256L256,503.83c136.873,0,247.83-110.957,247.83-247.83H460.255z"/>
<path style="fill:#FFD3C0;" d="M460.255,256H8.17c0,136.873,110.957,247.83,247.83,247.83
	C368.807,503.83,460.255,392.873,460.255,256z"/>
<g>
	<path style="fill:#FFECBA;" d="M149.787,51.745c-4.512,0-8.17-3.658-8.17-8.17V8.17c0-4.512,3.658-8.17,8.17-8.17
		s8.17,3.658,8.17,8.17v35.404C157.957,48.087,154.299,51.745,149.787,51.745z"/>
	<path style="fill:#FFECBA;" d="M106.213,51.745c-4.512,0-8.17-3.658-8.17-8.17V8.17c0-4.512,3.658-8.17,8.17-8.17
		c4.512,0,8.17,3.658,8.17,8.17v35.404C114.383,48.087,110.725,51.745,106.213,51.745z"/>
</g>
<path d="M67.479,111.627c4.498,0.402,8.465-2.91,8.872-7.403c1.017-11.287,10.343-19.798,21.691-19.798s20.674,8.511,21.691,19.798
	c0.383,4.244,3.947,7.437,8.128,7.437c0.061,0,0.123-0.007,0.184-0.009c4.221,0.044,7.834-3.154,8.22-7.428
	c1.017-11.287,10.343-19.798,21.691-19.798s20.674,8.511,21.691,19.798c0.383,4.244,3.947,7.437,8.128,7.437
	c0.246,0,0.495-0.011,0.744-0.034c4.494-0.405,7.809-4.377,7.403-8.872c-1.783-19.765-18.105-34.67-37.966-34.67
	c-12.154,0-22.975,5.587-29.957,14.448c-6.983-8.861-17.803-14.448-29.957-14.448c-19.861,0-36.183,14.905-37.966,34.67
	C59.671,107.25,62.986,111.222,67.479,111.627z"/>
<path d="M128,231.489c37.157,0,70.38-21.201,86.125-54.468h240.684c13.515,0,24.511-10.995,24.511-24.511
	c0-13.516-10.996-24.511-24.511-24.511H40.851c-4.512,0-8.17,3.658-8.17,8.17C32.681,188.73,75.44,231.489,128,231.489z
	 M454.809,144.34c4.506,0,8.17,3.665,8.17,8.17s-3.665,8.17-8.17,8.17H208.79c-3.328,0-6.324,2.019-7.573,5.104
	c-12.143,29.988-40.883,49.364-73.217,49.364c-40.79,0-74.457-31.085-78.559-70.809H454.809z"/>
<path d="M512,256c0-4.512-3.657-8.17-8.17-8.17H8.17C3.658,247.83,0,251.488,0,256c0,68.38,26.628,132.667,74.981,181.019
	c26.412,26.412,57.585,46.324,91.576,58.973c-3.394,0.992-5.876,4.123-5.876,7.838c0,4.512,3.658,8.17,8.17,8.17h174.298
	c4.513,0,8.17-3.658,8.17-8.17c0-3.715-2.482-6.846-5.876-7.838c33.991-12.649,65.165-32.561,91.576-58.973
	C485.372,388.667,512,324.38,512,256z M256,495.66c-129.414,0-235.2-103.108-239.522-231.489h479.045
	C491.2,392.551,385.415,495.66,256,495.66z"/>
<circle cx="89.622" cy="363.574" r="8.17"/>
<circle cx="122.303" cy="396.255" r="8.17"/>
</svg>